<?xml version="1.0" standalone="no"?>
<!DOCTYPE svg PUBLIC "-//W3C//DTD SVG 20010904//EN"
 "http://www.w3.org/TR/2001/REC-SVG-20010904/DTD/svg10.dtd">
<svg version="1.0" xmlns="http://www.w3.org/2000/svg"
 width="1024.000000pt" height="1024.000000pt" viewBox="0 0 1024.000000 1024.000000"
 preserveAspectRatio="xMidYMid meet">

<g transform="translate(0.000000,1024.000000) scale(0.100000,-0.100000)"
fill="#000000" stroke="none">
<path d="M4901 5959 c-883 -99 -1602 -712 -1836 -1564 -213 -779 49 -1639 660
-2163 730 -626 1777 -694 2570 -167 617 410 983 1122 952 1855 -43 1020 -776
1851 -1781 2021 -140 24 -433 33 -565 18z m-518 -854 c150 -45 275 -178 302
-320 l7 -40 14 52 c19 75 49 128 102 185 55 59 111 94 193 119 56 18 99 19
553 19 458 0 497 -1 548 -19 183 -63 298 -220 298 -408 0 -86 -425 -1798 -470
-1891 -140 -292 -539 -327 -730 -63 -47 64 -72 137 -77 226 -5 77 1 101 146
683 83 331 151 604 151 606 0 2 -84 6 -187 9 -154 4 -198 8 -244 25 -131 47
-230 144 -275 270 -11 31 -13 -91 -14 -755 0 -509 -4 -819 -11 -869 -61 -439
-647 -512 -822 -101 l-22 52 -3 937 c-2 926 -2 938 18 1000 35 105 94 178 195
243 81 51 231 70 328 40z"/>
</g>
</svg>
